HIERARCHY
ROOT root
{
  OFFSET 0 93.2929 0
  CHANNELS 6 Xposition Yposition Zposition Zrotation Xrotation Yrotation
  JOINT torso_1
  {
    OFFSET 0 5.07867 -1.15138
    CHANNELS 6 Xposition Yposition Zposition Zrotation Xrotation Yrotation
    JOINT torso_2
    {
      OFFSET 0 5.61661 1.07143
      CHANNELS 6 Xposition Yposition Zposition Zrotation Xrotation Yrotation
      JOINT torso_3
      {
        OFFSET -1.02604e-17 5.98978 0.11501
        CHANNELS 6 Xposition Yposition Zposition Zrotation Xrotation Yrotation
        JOINT torso_4
        {
          OFFSET -1.10457e-17 6.50583 -0.443523
          CHANNELS 6 Xposition Yposition Zposition Zrotation Xrotation Yrotation
          JOINT torso_5
          {
            OFFSET -1.97295e-17 7.60548 -1.50593
            CHANNELS 6 Xposition Yposition Zposition Zrotation Xrotation Yrotation
            JOINT torso_6
            {
              OFFSET -2.53307e-17 9.49737 -0.914492
              CHANNELS 6 Xposition Yposition Zposition Zrotation Xrotation Yrotation
              JOINT torso_7
              {
                OFFSET -2.90401e-17 10.5513 1.57691
                CHANNELS 6 Xposition Yposition Zposition Zrotation Xrotation Yrotation
                JOINT neck_1
                {
                  OFFSET -1.29193e-17 4.78644 0.715339
                  CHANNELS 6 Xposition Yposition Zposition Zrotation Xrotation Yrotation
                  JOINT neck_2
                  {
                    OFFSET -1.8116e-17 4.82109 0.421791
                    CHANNELS 6 Xposition Yposition Zposition Zrotation Xrotation Yrotation
                    JOINT head
                    {
                      OFFSET -2.00958e-17 4.83041 0.765062
                      CHANNELS 6 Xposition Yposition Zposition Zrotation Xrotation Yrotation
                      End Site
                      {
                        OFFSET 0 0.1 0
                      }
                    }
                  }
                }
                JOINT l_shoulder
                {
                  OFFSET 1.23299 -7.60731 7.53374
                  CHANNELS 6 Xposition Yposition Zposition Zrotation Xrotation Yrotation
                  JOINT l_up_arm
                  {
                    OFFSET 12.9547 3.2495 -3.26872
                    CHANNELS 6 Xposition Yposition Zposition Zrotation Xrotation Yrotation
                    JOINT l_low_arm
                    {
                      OFFSET 29.2081 0.0598081 0.137039
                      CHANNELS 6 Xposition Yposition Zposition Zrotation Xrotation Yrotation
                      JOINT l_hand
                      {
                        OFFSET 24.234 0.0496219 0.113701
                        CHANNELS 6 Xposition Yposition Zposition Zrotation Xrotation Yrotation
                        End Site
                        {
                          OFFSET 0.1 0 0
                        }
                      }
                    }
                  }
                }
                JOINT r_shoulder
                {
                  OFFSET -1.23299 -7.60729 7.53365
                  CHANNELS 6 Xposition Yposition Zposition Zrotation Xrotation Yrotation
                  JOINT r_up_arm
                  {
                    OFFSET -12.9547 3.2495 -3.26872
                    CHANNELS 6 Xposition Yposition Zposition Zrotation Xrotation Yrotation
                    JOINT r_low_arm
                    {
                      OFFSET -29.2081 0.0598081 0.137039
                      CHANNELS 6 Xposition Yposition Zposition Zrotation Xrotation Yrotation
                      JOINT r_hand
                      {
                        OFFSET -24.234 0.0496218 0.113702
                        CHANNELS 6 Xposition Yposition Zposition Zrotation Xrotation Yrotation
                        End Site
                        {
                          OFFSET -0.1 0 0
                        }
                      }
                    }
                  }
                }
              }
            }
          }
        }
      }
    }
  }
  JOINT l_up_leg
  {
    OFFSET 9.23673 -4.20556 2.0327
    CHANNELS 6 Xposition Yposition Zposition Zrotation Xrotation Yrotation
    JOINT l_low_leg
    {
      OFFSET -0.852353 -38.7721 -0.655187
      CHANNELS 6 Xposition Yposition Zposition Zrotation Xrotation Yrotation
      JOINT l_foot
      {
        OFFSET -2.32622 -40.4017 -6.04875
        CHANNELS 6 Xposition Yposition Zposition Zrotation Xrotation Yrotation
        JOINT l_toes
        {
          OFFSET 0.779096 -9.8844 12.4959
          CHANNELS 6 Xposition Yposition Zposition Zrotation Xrotation Yrotation
          End Site
          {
            OFFSET 0 0 0.1
          }
        }
      }
    }
  }
  JOINT r_up_leg
  {
    OFFSET -9.23673 -4.20556 2.0327
    CHANNELS 6 Xposition Yposition Zposition Zrotation Xrotation Yrotation
    JOINT r_low_leg
    {
      OFFSET 0.852353 -38.7721 -0.655187
      CHANNELS 6 Xposition Yposition Zposition Zrotation Xrotation Yrotation
      JOINT r_foot
      {
        OFFSET 2.32622 -40.4017 -6.04875
        CHANNELS 6 Xposition Yposition Zposition Zrotation Xrotation Yrotation
        JOINT r_toes
        {
          OFFSET -0.779096 -9.8844 12.4959
          CHANNELS 6 Xposition Yposition Zposition Zrotation Xrotation Yrotation
          End Site
          {
            OFFSET 0 0 0.1
          }
        }
      }
    }
  }
}
MOTION
Frames: 5
Frame Time: 0.016667
-15.9223 93.2155 8.19795 0.0269653 -0.595474 -12.9666 0 5.07867 -1.15138 0.581795 -5.1693 1.29252 0 5.61661 1.07143 0.393006 -3.36666 1.51556 -1.02604e-17 5.98978 0.11501 0.231361 -0.608914 1.67239 -1.10457e-17 6.50583 -0.443523 -0.0735485 3.73016 1.76054 -1.97295e-17 7.60548 -1.50593 0.0759139 5.85442 1.6968 -2.53307e-17 9.49737 -0.914492 0.569954 7.11487 1.4116 -2.90401e-17 10.5513 1.57691 0.190988 0.618748 0.0337053 -1.29193e-17 4.78644 0.715339 -0.904091 11.9678 16.8718 -1.8116e-17 4.82109 0.421791 1.43668 -3.21902 7.93188 -2.00958e-17 4.83041 0.765062 3.16511 -4.93167 11.4288 1.23299 -7.60731 7.53374 6.33535 -3.68602 4.96969 12.9547 3.2495 -3.26872 -43.9982 29.2568 -2.26123 29.2081 0.0598081 0.137039 11.6585 -14.8853 -104.577 24.234 0.0496219 0.113701 -72.8991 -41.1857 -54.6749 -1.23299 -7.60729 7.53365 -9.6165 -0.419069 -4.74172 -12.9547 3.2495 -3.26872 72.6944 57.33 -25.6509 -29.2081 0.0598081 0.137039 -12.0268 -12.373 92.2316 -24.234 0.0496218 0.113702 36.3022 13.6433 27.3426 9.23673 -4.20556 2.0327 3.49365 1.53239 -13.1337 -0.852353 -38.7721 -0.655187 0.988899 -3.67657 0.0959509 -2.32622 -40.4017 -6.04875 -3.62467 0.784244 15.489 0.779096 -9.8844 12.4959 2.03969e-16 -7.89541e-16 6.82651e-18 -9.23673 -4.20556 2.0327 -6.64725 4.37128 19.5621 0.852353 -38.7721 -0.655187 -0.776292 -2.88909 -0.070024 2.32622 -40.4017 -6.04875 4.91987 -0.336777 -15.9233 -0.779096 -9.8844 12.4959 -6.57492e-16 -5.65227e-16 -1.27408e-14 
-15.8884 93.2086 8.1713 0.0399995 -0.710346 -13.0608 0 5.07867 -1.15138 0.588775 -5.1043 1.28064 0 5.61661 1.07143 0.402869 -3.30935 1.49864 -1.02604e-17 5.98978 0.11501 0.243283 -0.581358 1.66064 -1.10457e-17 6.50583 -0.443523 -0.0588514 3.68814 1.74901 -1.97295e-17 7.60548 -1.50593 0.0941701 5.77328 1.68109 -2.53307e-17 9.49737 -0.914492 0.588652 7.02413 1.39638 -2.90401e-17 10.5513 1.57691 0.172924 0.636632 0.0334559 -1.29193e-17 4.78644 0.715339 -0.91231 12.1133 16.9889 -1.8116e-17 4.82109 0.421791 1.47798 -3.1206 7.99709 -2.00958e-17 4.83041 0.765062 2.97813 -4.97427 11.6743 1.23299 -7.60731 7.53374 6.12638 -3.78202 4.88837 12.9547 3.2495 -3.26872 -44.817 25.4048 -3.04224 29.2081 0.0598081 0.137039 11.6344 -14.9752 -105.031 24.234 0.0496219 0.113701 -80.1564 -42.9323 -63.339 -1.23299 -7.60729 7.53365 -9.84508 -0.398362 -4.94761 -12.9547 3.2495 -3.26872 72.1965 57.5331 -24.8912 -29.2081 0.0598081 0.137039 -12.0251 -12.419 92.4535 -24.234 0.0496218 0.113702 36.7377 13.3119 27.2993 9.23673 -4.20556 2.0327 3.44729 1.61492 -13.107 -0.852353 -38.7721 -0.655187 0.977502 -3.63441 0.094488 -2.32622 -40.4017 -6.04875 -3.66137 0.772521 15.4939 0.779096 -9.8844 12.4959 3.09558e-16 -7.86241e-16 3.52685e-18 -9.23673 -4.20556 2.0327 -6.70088 4.45755 19.6729 0.852353 -38.7721 -0.655187 -0.778085 -2.89574 -0.0702307 2.32622 -40.4017 -6.04875 4.83597 -0.354829 -15.9266 -0.779096 -9.8844 12.4959 -1.84805e-15 -5.11069e-16 -1.26866e-14 
-15.8605 93.1936 8.14127 0.0510461 -0.831245 -13.1745 0 5.07867 -1.15138 0.597243 -5.01677 1.26592 0 5.61661 1.07143 0.415196 -3.23917 1.48013 -1.02604e-17 5.98978 0.11501 0.257684 -0.552808 1.64796 -1.10457e-17 6.50583 -0.443523 -0.0413631 3.63017 1.73694 -1.97295e-17 7.60548 -1.50593 0.114496 5.66593 1.66423 -2.53307e-17 9.49737 -0.914492 0.607982 6.90008 1.37856 -2.90401e-17 10.5513 1.57691 0.15588 0.656369 0.0338916 -1.29193e-17 4.78644 0.715339 -0.929648 12.2754 17.1244 -1.8116e-17 4.82109 0.421791 1.5148 -3.01882 8.06862 -2.00958e-17 4.83041 0.765062 2.7636 -5.00717 11.8763 1.23299 -7.60731 7.53374 6.02682 -3.86453 4.82539 12.9547 3.2495 -3.26872 -45.8259 21.6931 -3.83876 29.2081 0.0598081 0.137039 11.6141 -15.0488 -105.403 24.234 0.0496219 0.113701 -87.2442 -43.976 -72.0079 -1.23299 -7.60729 7.53365 -10.1199 -0.359883 -5.15788 -12.9547 3.2495 -3.26872 71.8862 57.7411 -24.2449 -29.2081 0.0598081 0.137039 -12.0234 -12.4621 92.6617 -24.234 0.0496218 0.113702 37.1709 12.9864 27.2255 9.23673 -4.20556 2.0327 3.40331 1.70943 -13.054 -0.852353 -38.7721 -0.655187 0.966647 -3.59425 0.0931024 -2.32622 -40.4017 -6.04875 -3.68648 0.731333 15.498 0.779096 -9.8844 12.4959 7.14459e-17 -7.93682e-16 1.09679e-17 -9.23673 -4.20556 2.0327 -6.75253 4.54557 19.803 0.852353 -38.7721 -0.655187 -0.778971 -2.89902 -0.0703328 2.32622 -40.4017 -6.04875 4.74136 -0.407623 -15.9262 -0.779096 -9.8844 12.4959 -1.13372e-15 -5.40833e-16 -1.27164e-14 
-15.8444 93.1689 8.11109 0.0644907 -0.914663 -13.3338 0 5.07867 -1.15138 0.606881 -4.91438 1.25093 0 5.61661 1.07143 0.428694 -3.16281 1.46224 -1.02604e-17 5.98978 0.11501 0.27281 -0.527852 1.6363 -1.10457e-17 6.50583 -0.443523 -0.0232761 3.55537 1.72607 -1.97295e-17 7.60548 -1.50593 0.134682 5.53331 1.64835 -2.53307e-17 9.49737 -0.914492 0.626218 6.74531 1.36091 -2.90401e-17 10.5513 1.57691 0.139603 0.676787 0.0347712 -1.29193e-17 4.78644 0.715339 -0.966025 12.4528 17.3254 -1.8116e-17 4.82109 0.421791 1.5379 -2.92291 8.16803 -2.00958e-17 4.83041 0.765062 2.51755 -5.05318 12.026 1.23299 -7.60731 7.53374 6.03403 -3.93129 4.77274 12.9547 3.2495 -3.26872 -47.0208 18.1133 -4.61423 29.2081 0.0598081 0.137039 11.5948 -15.117 -105.749 24.234 0.0496219 0.113701 -93.5571 -44.7785 -80.3032 -1.23299 -7.60729 7.53365 -10.4063 -0.302499 -5.36504 -12.9547 3.2495 -3.26872 71.7373 57.9577 -23.7122 -29.2081 0.0598081 0.137039 -12.0214 -12.5077 92.8826 -24.234 0.0496218 0.113702 37.6201 12.6923 27.058 9.23673 -4.20556 2.0327 3.37033 1.78451 -12.9445 -0.852353 -38.7721 -0.655187 0.957762 -3.56137 0.0919738 -2.32622 -40.4017 -6.04875 -3.696 0.64579 15.5003 0.779096 -9.8844 12.4959 4.02754e-16 -7.83329e-16 6.14493e-19 -9.23673 -4.20556 2.0327 -6.79461 4.59213 19.9682 0.852353 -38.7721 -0.655187 -0.77974 -2.90188 -0.0704216 2.32622 -40.4017 -6.04875 4.64839 -0.509121 -15.9244 -0.779096 -9.8844 12.4959 -2.12764e-15 -4.9942e-16 -1.2675e-14 
-15.8412 93.139 8.08046 0.0876324 -0.979222 -13.5278 0 5.07867 -1.15138 0.610626 -4.81656 1.23615 0 5.61661 1.07143 0.436904 -3.09284 1.44418 -1.02604e-17 5.98978 0.11501 0.283414 -0.509541 1.62458 -1.10457e-17 6.50583 -0.443523 -0.00885573 3.47408 1.71507 -1.97295e-17 7.60548 -1.50593 0.151747 5.39375 1.63299 -2.53307e-17 9.49737 -0.914492 0.641991 6.58228 1.34374 -2.90401e-17 10.5513 1.57691 0.124163 0.695995 0.0353828 -1.29193e-17 4.78644 0.715339 -1.01718 12.633 17.5875 -1.8116e-17 4.82109 0.421791 1.54589 -2.84635 8.29369 -2.00958e-17 4.83041 0.765062 2.29175 -5.10023 12.1505 1.23299 -7.60731 7.53374 6.08204 -3.98918 4.69848 12.9547 3.2495 -3.26872 -48.3635 14.6616 -5.4083 29.2081 0.0598081 0.137039 11.5766 -15.1799 -106.069 24.234 0.0496219 0.113701 -99.5403 -45.4324 -88.3397 -1.23299 -7.60729 7.53365 -10.6715 -0.234274 -5.55353 -12.9547 3.2495 -3.26872 71.6947 58.2227 -23.2594 -29.2081 0.0598081 0.137039 -12.0189 -12.5592 93.1313 -24.234 0.0496218 0.113702 38.0665 12.349 26.783 9.23673 -4.20556 2.0327 3.33511 1.84845 -12.7777 -0.852353 -38.7721 -0.655187 0.949507 -3.53082 0.0909298 -2.32622 -40.4017 -6.04875 -3.69269 0.544301 15.5019 0.779096 -9.8844 12.4959 4.22417e-16 -7.82715e-16 2.88531e-33 -9.23673 -4.20556 2.0327 -6.83943 4.61281 20.1817 0.852353 -38.7721 -0.655187 -0.780161 -2.90344 -0.0704702 2.32622 -40.4017 -6.04875 4.55167 -0.64124 -15.9184 -0.779096 -9.8844 12.4959 -1.56334e-15 -5.26178e-16 -1.27017e-14 
